inDegrees=yes
name=ik_S52_A02_T02
DataType=double
version=3
OpenSimVersion=4.3-2021-08-27-4bc7ad9
endheader
time	pelvis_tilt	pelvis_list	pelvis_rotation	pelvis_tx	pelvis_ty	pelvis_tz	hip_flexion_r	hip_adduction_r	hip_rotation_r	knee_angle_r	knee_angle_r_beta	ankle_angle_r	subtalar_angle_r	mtp_angle_r	hip_flexion_l	hip_adduction_l	hip_rotation_l	knee_angle_l	knee_angle_l_beta	ankle_angle_l	subtalar_angle_l	mtp_angle_l	lumbar_extension	lumbar_bending	lumbar_rotation	arm_flex_r	arm_add_r	arm_rot_r	elbow_flex_r	pro_sup_r	wrist_flex_r	wrist_dev_r	arm_flex_l	arm_add_l	arm_rot_l	elbow_flex_l	pro_sup_l	wrist_flex_l	wrist_dev_l
16.57999999999974	1.373831329045542	0.8559872591513468	-84.97504609639478	0	0.9399999999999999	0	6.471832802171649	-0.04017670232320818	-8.933675463843095	5.613050157698988	0.09796620633143428	0	0	0	-2.016646755338837	-2.451410048197095	-1.290790330744256	21.95925068977865	0.3832612258074733	0	0	0	0	0	0	22.0474383669237	-22.0474383669237	3.457267751856444	64.39149799676558	86.54273244543523	0	0	22.0474383669237	-22.0474383669237	3.457267751856444	64.39149799676558	86.54273244514647	0	0
16.59999999999973	1.419143787653331	0.9423059267888899	-84.93499498465978	0	0.9399999999999999	0	7.62197490407542	-0.6572061955243146	-8.404717637288725	5.776288364112911	0.1008152504984074	0	0	0	-2.751245843054329	-1.996292365121058	-0.7365178278465545	21.48606377706166	0.3750025562032148	0	0	0	0	0	0	22.0524874298397	-22.0524874298397	3.45792785238367	64.40073667705467	86.54207234494419	0	0	22.0524874298397	-22.0524874298397	3.45792785238367	64.40073667705467	86.54207234465551	0	0
16.61999999999973	1.442166964601388	1.141896642610002	-84.8813722245246	0	0.9399999999999999	0	7.862108168673801	-0.69811916311138	-8.426552570330182	5.620699984559264	0.0980997209973536	0	0	0	-3.448414026927675	-1.641332501550153	-0.07793154754577702	20.34957057153911	0.3551670078403019	0	0	0	0	0	0	22.05720261706836	-22.05720261706836	3.458547607885597	64.40941777242111	86.54145258947626	0	0	22.05720261706836	-22.05720261706836	3.458547607885597	64.40941777242111	86.54145258918768	0	0
16.63999999999973	1.490969222757262	1.293415452512876	-84.85225248620347	0	0.9399999999999999	0	9.161552179590705	-1.321877300420487	-8.078010329815591	6.19395336049572	0.1081048798556176	0	0	0	-4.050207320394419	-1.021552426901111	0.7965476459268942	19.19103479907122	0.3349467441086013	0	0	0	0	0	0	22.06569984176606	-22.06569984176606	3.459663065708105	64.42503816142437	86.54033713171489	0	0	22.06569984176606	-22.06569984176606	3.459663065708105	64.42503816142437	86.54033713142654	0	0
16.65999999999973	1.523394265747655	1.289889163663359	-84.84238218160414	0	0.9399999999999999	0	9.79039279986997	-1.644647082372824	-7.89470523432644	5.546887001098487	0.09681144140524292	0	0	0	-4.681709970945307	-0.4216057363688417	0.9388198008674424	17.89951135926918	0.3124054077173729	0	0	0	0	0	0	22.07344128850022	-22.07344128850022	3.460677772162718	64.43924368202205	86.53932242531592	0	0	22.07344128850022	-22.07344128850022	3.460677772162718	64.43924368202205	86.53932242502776	0	0
16.67999999999973	1.548541086362171	1.176533938265543	-84.8099492295304	0	0.9399999999999999	0	10.27225324449079	-1.997474320183211	-7.871591994116523	5.492295129531693	0.09585863350157649	0	0	0	-5.958060424693354	0.5117265780767298	1.057467748563407	15.67432558035984	0.2735685894068502	0	0	0	0	0	0	22.08137087335857	-22.08137087335857	3.461716360308023	64.45378110594251	86.53828383722755	0	0	22.08137087335857	-22.08137087335857	3.461716360308023	64.45378110594251	86.53828383693954	0	0
16.69999999999973	1.528940450478835	1.027678461743988	-84.74460864037795	0	0.9399999999999999	0	10.75481937029809	-2.355001304149189	-7.902508981699846	5.758301725416374	0.1005013244317862	0	0	0	-6.11186522097225	0.6434089826661045	1.17183732283077	14.36373208487499	0.2506944177554181	0	0	0	0	0	0	22.08629919355101	-22.08629919355101	3.462362499332944	64.4628265474465	86.53763769823807	0	0	22.08629919355101	-22.08629919355101	3.462362499332944	64.4628265474465	86.53763769795016	0	0
16.71999999999973	1.517279901589121	0.9368334175751057	-84.60490807938119	0	0.9399999999999999	0	11.38722285687158	-2.717607853150638	-7.70978670836413	5.338781753638899	0.09317931964639554	0	0	0	-6.336068865877059	1.836330912096522	-0.08536971745972126	12.1362145494471	0.211816902616292	0	0	0	0	0	0	22.06883956687737	-22.06883956687737	3.460616178739272	64.43949083269412	86.53938401874025	0	0	22.06883956687737	-22.06883956687737	3.460616178739272	64.43949083269412	86.539384018452	0	0
16.73999999999973	1.563622110630155	0.8331567838608642	-84.42671095637928	0	0.9399999999999999	0	12.04819083467714	-3.103531100553571	-7.518101261047097	5.7283443416964	0.09997846945058927	0	0	0	-6.403859148767965	2.46940584987884	0.9324238479595187	10.98556490190425	0.191734277729757	0	0	0	0	0	0	22.07505241463019	-22.07505241463019	3.461432005186153	64.45091468664309	86.5385681923381	0	0	22.07505241463019	-22.07505241463019	3.461432005186153	64.45091468664309	86.53856819205002	0	0
16.75999999999973	1.635952803523963	0.7135774716229519	-84.26205727303771	0	0.9399999999999999	0	12.60330791663811	-3.448600564807424	-7.391861344473057	5.605969538749081	0.09784262621767929	0	0	0	-6.634632729008082	3.411658877287985	2.329945488724335	9.604237293188101	0.1676255629089603	0	0	0	0	0	0	22.08062339590249	-22.08062339590249	3.462163741239545	64.46116101669206	86.53783645632484	0	0	22.08062339590249	-22.08062339590249	3.462163741239545	64.46116101669206	86.53783645603691	0	0
16.77999999999973	1.717765539234457	0.6663060303069519	-84.1856421114606	0	0.9399999999999999	0	12.60945551604578	-3.509238711500842	-7.356029779677992	4.867650895670688	0.08495653496710449	0	0	0	-6.21706991163812	3.678154765435498	2.07065042898969	9.314133849818491	0.1625623026507877	0	0	0	0	0	0	22.08429189079248	-22.08429189079248	3.462645325743532	64.46790375055096	86.53735487184727	0	0	22.08429189079248	-22.08429189079248	3.462645325743532	64.46790375055096	86.5373548715594	0	0
16.79999999999973	1.78584146207875	0.4468157506869421	-84.07177766435353	0	0.9399999999999999	0	12.97872379798612	-3.741313413789	-7.298728789997615	4.429517278243987	0.07730966077933536	0	0	0	-6.381929973158278	3.84866092171915	2.447336057751102	8.708578803465894	0.151993373289868	0	0	0	0	0	0	22.088768361738	-22.088768361738	3.463232291507685	64.47612032328888	86.5367679061153	0	0	22.088768361738	-22.088768361738	3.463232291507685	64.47612032328888	86.53676790582752	0	0
16.81999999999973	1.903845877264796	0.1846579449581043	-84.01613128491491	0	0.9399999999999999	0	13.30342951507983	-3.995927001191769	-7.344362463470147	4.121629748604945	0.07193600966130245	0	0	0	-6.151004060223978	4.353445787548136	2.97251720332143	8.453740285916949	0.1475456020977376	0	0	0	0	0	0	22.09133242565338	-22.09133242565338	3.463568395447714	64.48082490108072	86.53643180219368	0	0	22.09133242565338	-22.09133242565338	3.463568395447714	64.48082490108072	86.53643180190595	0	0
16.83999999999973	2.069936236113001	-0.1207588188279203	-83.95631604127765	0	0.9399999999999999	0	13.56994845987508	-4.291110111788331	-7.377809450121611	3.670278751714009	0.06405844868339693	0	0	0	-6.429794667565431	4.876396339165763	3.827661290969252	7.358375641799846	0.1284278825479582	0	0	0	0	0	0	22.09722536844553	-22.09722536844553	3.464342341780535	64.49166086229023	86.5356578559033	0	0	22.09722536844553	-22.09722536844553	3.464342341780535	64.49166086229023	86.5356578556157	0	0
16.85999999999973	2.721674469859973	-0.6065126857726696	-83.9778915290586	0	0.9399999999999999	0	14.43884581654407	-5.319336648094126	-7.187306307877828	4.559418918549193	0.07957687210640257	0	0	0	-6.459113442422658	5.868016158023283	2.957233470184837	7.213764890321918	0.1259039488008851	0	0	0	0	0	0	22.10706917378312	-22.10706917378312	3.465634149702248	64.5097437692225	86.53436604805241	0	0	22.10706917378312	-22.10706917378312	3.465634149702248	64.5097437692225	86.53436604776503	0	0
16.87999999999973	2.721199021550199	-0.5974955476654364	-83.9802667511559	0	0.9399999999999999	0	14.40307605631627	-5.332539608875467	-7.319255687483661	3.001364982370434	0.05238370099642563	0	0	0	-5.490664122826903	5.61632759872188	1.405883861920604	7.821634101578346	0.1365132679588107	0	0	0	0	0	0	22.11683305216933	-22.11683305216933	3.466914244174722	64.52765854825955	86.53308595365009	0	0	22.11683305216933	-22.11683305216933	3.466914244174722	64.52765854825955	86.53308595336294	0	0
